<?xml version="1.0" standalone="no"?>
<!DOCTYPE svg PUBLIC "-//W3C//DTD SVG 20010904//EN"
 "http://www.w3.org/TR/2001/REC-SVG-20010904/DTD/svg10.dtd">
<svg version="1.0" xmlns="http://www.w3.org/2000/svg"
 width="1162.000000pt" height="1162.000000pt" viewBox="0 0 1162.000000 1162.000000"
 preserveAspectRatio="xMidYMid meet">

<g transform="translate(0.000000,1162.000000) scale(0.100000,-0.100000)"
fill="#000000" stroke="none">
<path d="M5560 11614 c-385 -26 -543 -44 -788 -89 -1168 -211 -2220 -764
-3066 -1611 -918 -917 -1494 -2087 -1656 -3363 -34 -272 -43 -427 -43 -746 0
-318 9 -474 44 -745 232 -1800 1296 -3389 2881 -4301 192 -111 524 -271 738
-357 519 -207 1064 -337 1630 -387 222 -20 808 -20 1030 0 1036 92 2005 452
2864 1063 512 364 1006 862 1373 1382 488 695 822 1489 969 2310 64 359 84
601 84 1035 0 365 -7 484 -41 750 -323 2515 -2273 4547 -4779 4979 -159 27
-342 51 -520 66 -121 11 -626 21 -720 14z m680 -125 c1766 -129 3375 -1083
4355 -2584 521 -796 827 -1702 906 -2675 15 -187 15 -663 0 -850 -113 -1396
-695 -2651 -1682 -3627 -827 -816 -1843 -1347 -2983 -1557 -334 -62 -639 -88
-1016 -88 -299 0 -471 10 -732 43 -1350 170 -2618 841 -3530 1869 -778 875
-1267 1958 -1402 3105 -39 331 -51 798 -27 1095 56 695 208 1299 479 1912 562
1265 1626 2328 2893 2886 672 297 1371 456 2129 486 124 5 454 -3 610 -15z"/>
<path d="M4773 8563 c4 -847 2 -823 57 -983 99 -286 307 -509 585 -626 139
-59 240 -79 405 -79 157 0 260 19 389 71 320 129 540 384 633 735 22 83 22 95
25 877 l4 792 -1051 0 -1051 0 4 -787z m1407 7 c194 -338 386 -672 426 -742
41 -70 77 -134 80 -143 6 -14 -5 -15 -92 -13 l-98 3 -389 673 -388 673 52 85
c28 47 52 84 54 82 1 -2 161 -280 355 -618z m-201 -300 l340 -595 -91 -3 c-50
-1 -95 1 -99 5 -14 14 -589 1013 -589 1023 0 10 92 171 96 167 2 -1 156 -270
343 -597z m-279 -149 c133 -233 244 -430 247 -438 4 -11 -11 -13 -93 -11 l-98
3 -203 351 -204 351 52 87 c28 48 52 86 54 84 1 -2 111 -194 245 -427z m-276
-170 c86 -151 156 -276 156 -277 0 -2 -45 -4 -99 -4 l-99 0 -106 184 c-58 102
-107 189 -108 194 -3 9 94 184 98 179 1 -1 72 -125 158 -276z m-303 -123 c23
-40 53 -92 66 -115 l25 -43 -135 0 -136 0 67 115 c37 63 68 115 69 115 1 0 21
-33 44 -72z"/>
<path d="M2330 5520 l0 -850 348 0 c392 0 438 6 553 66 109 57 170 137 217
284 78 243 77 774 -2 1007 -13 37 -33 88 -46 112 -32 63 -120 148 -184 177
-105 48 -163 54 -538 54 l-348 0 0 -850z m660 546 c123 -64 151 -163 151 -541
0 -378 -28 -477 -151 -541 -27 -14 -65 -19 -172 -22 l-138 -4 0 567 0 567 138
-4 c107 -3 145 -8 172 -22z"/>
<path d="M3690 5520 l0 -850 460 0 460 0 0 150 0 150 -280 0 -280 0 0 225 0
225 260 0 260 0 0 150 0 150 -260 0 -260 0 0 185 0 185 280 0 280 0 0 140 0
140 -460 0 -460 0 0 -850z"/>
<path d="M5209 6368 c0 -2 -107 -383 -238 -848 l-238 -845 175 -3 c96 -1 176
-1 178 1 2 1 23 86 47 187 l43 185 249 0 249 0 45 -187 45 -188 187 0 188 0
-23 83 c-13 45 -119 427 -236 850 l-214 767 -228 0 c-125 0 -228 -1 -229 -2z
m305 -662 c43 -179 80 -334 83 -345 5 -21 2 -21 -172 -21 -137 0 -176 3 -173
13 3 6 42 162 89 345 46 182 86 332 89 332 3 0 41 -146 84 -324z"/>
<path d="M6250 5520 l0 -850 180 0 180 0 2 407 3 406 195 -403 c107 -221 200
-404 205 -406 6 -3 99 -3 207 -2 l196 3 -244 457 -245 458 245 390 244 390
-183 0 -184 0 -220 -367 -221 -368 0 368 0 367 -180 0 -180 0 0 -850z"/>
<path d="M7580 5520 l0 -850 175 0 175 0 0 850 0 850 -175 0 -175 0 0 -850z"/>
<path d="M8160 5520 l0 -850 150 0 150 0 0 563 1 562 228 -560 228 -560 197
-3 196 -2 0 850 0 850 -155 0 -155 0 -2 -522 -3 -521 -134 344 c-74 189 -165
424 -203 522 l-70 177 -214 0 -214 0 0 -850z"/>
<path d="M2338 4233 c-17 -4 -18 -28 -18 -328 0 -296 2 -328 20 -388 37 -121
115 -162 305 -162 132 0 199 19 250 72 65 67 69 91 73 447 2 176 1 330 -3 343
-5 20 -12 23 -48 23 -93 0 -85 30 -89 -328 -3 -293 -5 -320 -23 -357 -30 -60
-70 -77 -177 -73 -76 3 -90 6 -113 28 -50 46 -50 47 -55 395 l-5 330 -50 2
c-27 0 -58 -1 -67 -4z"/>
<path d="M3218 4233 c-17 -4 -18 -33 -18 -434 l0 -429 26 -10 c36 -14 101 -12
111 3 4 6 10 145 13 307 l5 294 190 -296 c201 -313 205 -318 279 -318 17 0 37
4 44 8 10 7 12 102 10 443 l-3 434 -44 3 c-25 2 -55 1 -68 -2 l-23 -6 -2 -306
-3 -306 -179 278 c-237 369 -217 344 -274 343 -26 -1 -55 -3 -64 -6z"/>
<path d="M4133 4234 c-10 -4 -13 -102 -13 -439 l0 -433 23 -6 c31 -8 90 -7
105 2 10 7 12 102 10 443 l-3 434 -55 2 c-30 1 -61 -1 -67 -3z"/>
<path d="M4434 4225 c-9 -22 274 -862 292 -869 28 -11 101 -6 111 7 15 18 283
828 283 855 0 20 -4 22 -64 22 -39 0 -68 -5 -74 -12 -12 -15 -192 -627 -192
-653 0 -45 -22 19 -110 319 -52 175 -100 325 -108 332 -19 20 -131 19 -138 -1z"/>
<path d="M6986 4220 c-100 -39 -145 -116 -132 -224 13 -100 71 -164 235 -262
119 -70 149 -108 141 -179 -8 -75 -137 -105 -300 -71 -77 17 -89 11 -97 -54
-7 -52 -3 -55 103 -71 112 -16 246 -8 309 20 96 43 129 96 128 208 -1 115 -54
185 -218 282 -144 86 -180 131 -155 192 22 52 105 69 262 54 l78 -7 10 28 c6
15 10 39 8 53 -4 36 -61 49 -208 50 -90 0 -126 -4 -164 -19z"/>
<path d="M7588 4233 c-17 -4 -18 -33 -18 -434 l0 -429 26 -10 c35 -14 98 -12
112 2 9 9 12 118 12 429 0 230 -3 424 -6 433 -5 12 -19 16 -58 15 -28 -1 -59
-3 -68 -6z"/>
<path d="M8635 4230 c-8 -13 6 -44 144 -310 l121 -235 0 -158 0 -157 27 -11
c15 -5 45 -9 67 -7 l41 3 5 165 5 165 133 256 c72 141 132 266 132 278 0 21
-4 22 -67 19 l-68 -3 -101 -202 -102 -201 -100 204 -101 204 -65 0 c-36 0 -67
-4 -71 -10z"/>
<path d="M5307 4223 c-4 -3 -7 -195 -7 -425 l0 -418 26 -10 c16 -6 125 -9 268
-8 l241 3 9 48 c14 77 14 77 -210 77 l-194 0 0 125 0 125 173 2 172 3 9 36 c5
20 6 48 2 63 l-6 26 -175 0 -175 0 0 120 0 120 197 2 198 3 9 42 c15 74 19 73
-274 73 -141 0 -260 -3 -263 -7z"/>
<path d="M6063 4219 c-10 -10 -13 -110 -13 -431 l0 -418 26 -10 c35 -14 98
-12 112 2 8 8 12 59 12 165 l0 153 74 0 74 0 87 -150 c48 -82 94 -155 102
-162 8 -6 41 -14 74 -16 47 -4 60 -1 65 12 4 9 -29 75 -85 173 l-91 158 37 13
c91 31 122 94 123 248 0 101 -2 115 -27 164 -23 44 -37 59 -78 80 -48 24 -58
25 -265 28 -165 3 -218 1 -227 -9z m407 -129 c33 -17 44 -51 44 -131 1 -79
-13 -122 -43 -135 -9 -3 -73 -9 -143 -12 l-128 -5 0 153 0 153 125 -6 c69 -4
134 -11 145 -17z"/>
<path d="M7886 4208 c-10 -37 -7 -83 6 -96 8 -8 50 -12 125 -12 l113 0 0 -365
0 -365 26 -10 c35 -14 98 -12 112 2 9 9 12 106 12 375 l0 362 117 3 117 3 9
38 c5 20 6 49 3 62 l-6 25 -314 0 -314 0 -6 -22z"/>
</g>
</svg>
